<svg xmlns="http://www.w3.org/2000/svg" width="29" height="23.557" viewBox="0 0 29 23.557"><path fill="#FFF" d="M29 2.787c-1.066.474-2.212.794-3.415.938 1.23-.736 2.17-1.903 2.614-3.29-1.153.682-2.426 1.177-3.78 1.445C23.332.722 21.79 0 20.076 0c-3.285 0-5.95 2.664-5.95 5.948 0 .465.054.92.155 1.355-4.944-.248-9.327-2.616-12.26-6.215-.514.877-.806 1.898-.806 2.99 0 2.063 1.05 3.885 2.646 4.95-.975-.032-1.892-.3-2.695-.746v.074c0 2.88 2.05 5.286 4.77 5.833-.498.133-1.023.207-1.566.207-.383 0-.755-.037-1.12-.11.758 2.365 2.955 4.085 5.557 4.132-2.035 1.594-4.6 2.542-7.388 2.542-.48 0-.954-.03-1.42-.082 2.633 1.69 5.76 2.677 9.12 2.677 10.942 0 16.925-9.064 16.925-16.926l-.02-.77c1.168-.833 2.18-1.88 2.975-3.073z"/></svg>