<svg xmlns="http://www.w3.org/2000/svg" width="29" height="29" viewBox="0 0 29 29"><path fill="#FFF" d="M26.1 0H2.9C1.305 0 0 1.305 0 2.9v23.2C0 27.695 1.305 29 2.9 29h23.2c1.596 0 2.9-1.305 2.9-2.9V2.9C29 1.305 27.695 0 26.1 0zM14.5 8.7c3.19 0 5.8 2.61 5.8 5.8s-2.61 5.8-5.8 5.8-5.8-2.61-5.8-5.8 2.61-5.8 5.8-5.8zM3.625 26.1c-.435 0-.725-.29-.725-.725V13.05h3.045c-.145.435-.145 1.015-.145 1.45 0 4.785 3.915 8.7 8.7 8.7s8.7-3.915 8.7-8.7c0-.435 0-1.015-.146-1.45H26.1v12.325c0 .435-.29.725-.725.725H3.625zM26.1 6.525c0 .435-.29.725-.725.725h-2.9c-.435 0-.725-.29-.725-.725v-2.9c0-.435.29-.725.725-.725h2.9c.435 0 .725.29.725.725v2.9z"/></svg>