<svg xmlns="http://www.w3.org/2000/svg" width="425" height="140.682"><g fill="#FFF"><path d="M424.063 33.822a14.935 14.935 0 0 0-7.764-8.422l-.035-.014a1.266 1.266 0 0 0-1.72 1.582c.123.316.356.566.664.71a12.49 12.49 0 0 1 7.233 10.486 12.423 12.423 0 0 1-3.054 9.065 12.379 12.379 0 0 1-8.159 4.219v-4.412l4.83-3.859a1.27 1.27 0 0 0 .183-1.777c-.423-.521-1.253-.609-1.776-.186l-3.236 2.589v-4.787c0-.698-.569-1.265-1.268-1.265-.69 0-1.261.567-1.261 1.265v12.426a12.448 12.448 0 0 1-9.303-5.737c-.359-.574-1.166-.759-1.74-.401-.284.179-.487.46-.562.79-.069.331-.012.666.166.951a14.947 14.947 0 0 0 11.439 6.93v7.888h-14.42V44.458c10.293-.539 18.444-8.632 19.025-18.962.034-.429.042-.86.042-1.298 0-11.211-9.119-20.331-20.331-20.331-11.21 0-20.327 9.12-20.327 20.331 0 .437.011.865.035 1.295.586 9.17 7.294 16.824 16.303 18.618.896.178 1.814.292 2.73.343v17.409H373.95v-14.67c0-.427-.206-.826-.548-1.075l-8.083-5.899v-10.83c0-.445-.22-.863-.597-1.109l-15.377-10.247a1.331 1.331 0 0 0-1.479 0l-15.38 10.247a1.333 1.333 0 0 0-.595 1.109V40.2l-8.414 5.902a1.33 1.33 0 0 0-.568 1.093l.007 14.668h-11.031V16.725h-.009c-.022-.452-.79-.817-1.737-.817-.943.005-1.701.371-1.733.817h-.01v45.139h-47.927V6.283c0-.814-.664-1.474-1.478-1.474h-31.907c-.818 0-1.476.66-1.476 1.474V61.864h-8.875V45.132c0-.605-.284-1.189-.78-1.575l-16.95-12.891c-.681-.515-1.704-.519-2.387-.006l-16.937 12.706a1.986 1.986 0 0 0-.801 1.592v16.905H168.28v-9.372c1.83-.171 3.63-.686 5.262-1.554.407-.213.807-.454 1.181-.706.311-.203.521-.515.593-.876.073-.361 0-.732-.203-1.042-.411-.609-1.298-.789-1.914-.378a11.265 11.265 0 0 1-4.919 1.796V34.515c0-.342-.13-.664-.374-.907a1.28 1.28 0 0 0-2.183.907v3.46l-2.003-1.603c-.518-.409-1.386-.31-1.799.208a1.29 1.29 0 0 0 .199 1.794l3.603 2.878v8.472a11.15 11.15 0 0 1-8.623-5.846 11.121 11.121 0 0 1-.821-8.528 11.143 11.143 0 0 1 5.443-6.617c1.689-.897 3.556-1.371 5.404-1.371 4.042 0 7.743 2.237 9.659 5.84.352.647 1.213.912 1.867.563.67-.357.925-1.191.567-1.862-2.381-4.479-7.056-7.261-12.199-7.261-2.284 0-4.562.57-6.595 1.649-6.794 3.622-9.38 12.09-5.765 18.883 2.226 4.182 6.39 6.881 11.061 7.306v9.382h-26.204V6.321c0-.818-.667-1.485-1.488-1.485H73.988c-.818 0-1.484.667-1.484 1.485v55.543H49.592v-8.18c7.645-.647 13.591-7.074 13.603-14.787-.012-5.766-3.397-11.053-8.631-13.467-.602-.283-1.376 0-1.656.608a1.248 1.248 0 0 0 .61 1.656 12.254 12.254 0 0 1 6.417 6.936 12.252 12.252 0 0 1-.374 9.438 12.325 12.325 0 0 1-9.969 7.117v-4.361l4.76-3.806a1.245 1.245 0 0 0 .204-1.752c-.409-.52-1.218-.628-1.763-.199l-3.202 2.562v-4.731a1.249 1.249 0 0 0-2.495 0v12.276a12.28 12.28 0 0 1-9.19-5.668c-.355-.564-1.164-.746-1.721-.389a1.245 1.245 0 0 0-.391 1.717 14.75 14.75 0 0 0 11.302 6.842v8.188H32.851V44.276c10.169-.535 18.221-8.53 18.794-18.734.028-.426.042-.847.042-1.284 0-11.073-9.011-20.087-20.087-20.087-11.075 0-20.085 9.014-20.085 20.087 0 .433.013.856.038 1.28.578 9.059 7.201 16.625 16.105 18.395.887.178 1.794.287 2.695.341v17.591H16.099v-8.188A14.73 14.73 0 0 0 27.4 46.834a1.235 1.235 0 0 0-.388-1.719c-.564-.358-1.364-.171-1.717.393a12.284 12.284 0 0 1-9.195 5.667V38.898c0-.689-.56-1.25-1.244-1.25-.688 0-1.251.561-1.251 1.25v4.732l-3.195-2.564c-.516-.415-1.338-.328-1.757.188a1.25 1.25 0 0 0 .182 1.755l4.769 3.814v4.361a12.272 12.272 0 0 1-8.062-4.169 12.257 12.257 0 0 1-3.01-8.957 12.34 12.34 0 0 1 7.144-10.363c.304-.141.533-.389.651-.699a1.23 1.23 0 0 0-.035-.956 1.253 1.253 0 0 0-1.663-.609l-.029.014a14.721 14.721 0 0 0-7.672 8.319 14.744 14.744 0 0 0 .441 11.349 14.815 14.815 0 0 0 12.235 8.572v8.179H9.463c-.825 0-1.503.673-1.503 1.502 0 .825.678 1.5 1.503 1.5h176.871v-.035a1.984 1.984 0 0 0 1.956-1.974V49.879h3.378v12.977c0 1.091.892 1.98 1.984 1.98h.138v.028h114.604v49.996h.015c.043.461.796 1.068 1.731 1.066.933-.008 1.673-.605 1.723-1.066h.021V64.866h12.031c.109.028.214.067.334.067h19.588c.111 0 .206-.038.311-.061.581-.145 1.022-.645 1.022-1.268V52.993h6.265v10.611c0 .731.599 1.329 1.334 1.329h19.844c.118 0 .225-.039.334-.067h41.327a1.5 1.5 0 0 0 1.498-1.5c0-.829-.668-1.502-1.498-1.502h-3.045v-7.881a14.994 14.994 0 0 0 12.384-8.678 14.914 14.914 0 0 0 .45-11.483zM28.15 41.49c-7.796-1.548-13.596-8.176-14.106-16.105a19.763 19.763 0 0 1-.037-1.127c.005-9.696 7.897-17.584 17.601-17.584 9.692.001 17.583 7.891 17.585 17.584 0 .38-.011.752-.04 1.125a17.292 17.292 0 0 1-16.302 16.389v-4.363l9.991-7.997c.537-.43.621-1.213.189-1.753-.417-.514-1.234-.603-1.747-.194l-8.434 6.753V14.832c0-.334-.13-.646-.369-.879a1.247 1.247 0 0 0-2.128.88v6.826L26.1 18.258c-.519-.414-1.341-.319-1.753.201a1.257 1.257 0 0 0 .192 1.751l5.815 4.646v16.916a16.064 16.064 0 0 1-2.204-.282zm79.413-33.684h28.986v48.282h-16.58v-20.45c0-.749-.609-1.356-1.356-1.356h-6.566c-.75 0-1.355.607-1.355 1.356v20.45h-3.128V7.806zm9.694 29.185v18.993h-3.853V36.991h3.853zM75.473 7.806h28.987v48.282H88.014v-20.45c0-.749-.608-1.356-1.355-1.356h-6.566c-.751 0-1.359.607-1.359 1.356v20.45h-3.26V7.806zm9.828 29.185v18.993h-3.852V36.991h3.852zm-9.828 22.068h28.987v2.805H75.473v-2.805zm32.09 0h28.986v2.805h-28.986v-2.805zm85.609-12.182h-6.384c-.831 0-1.499.669-1.499 1.498v13.457h-3.412v-16.36L197.8 33.526l15.929 12.109v16.197h-19.057V48.375c0-.829-.672-1.498-1.5-1.498zm35.384-39.115h28.96v48.005h-16.487V35.434a1.35 1.35 0 0 0-1.35-1.349h-6.526c-.747 0-1.349.603-1.349 1.349v20.333h-3.248V7.762zm5.943 47.903V36.781h3.834v18.884h-3.834zm-5.943 3.056h28.96v3.017h-28.96v-3.017zm142.724 3.143h-17.179V51.657c0-.735-.597-1.331-1.332-1.331h-8.932c-.735 0-1.334.596-1.334 1.331v10.207h-16.926l-.002-13.976 8.414-5.9c.355-.247.568-.658.568-1.09V30.103l14.047-9.356 14.047 9.356v10.79c0 .427.201.827.547 1.078l8.081 5.899v13.994zm20.477-47.208v6.908l-4.307-3.44c-.525-.419-1.355-.323-1.776.203a1.273 1.273 0 0 0 .194 1.77l5.889 4.703v17.124a16.073 16.073 0 0 1-2.23-.284c-7.891-1.569-13.767-8.278-14.283-16.301a20.286 20.286 0 0 1-.031-1.14c.003-9.818 7.988-17.802 17.812-17.802 9.811.001 17.799 7.989 17.799 17.802 0 .385-.014.758-.039 1.139a17.506 17.506 0 0 1-16.504 16.586V37.51l10.118-8.095c.54-.437.628-1.23.191-1.778-.421-.518-1.253-.608-1.772-.192l-8.537 6.833V14.656c0-.338-.131-.653-.372-.893a1.25 1.25 0 0 0-.892-.366 1.26 1.26 0 0 0-1.26 1.259z"/><path d="M173.852 43.429c.5.661 1.443.792 2.104.295l21.924-16.482 8.37 6.421a1.504 1.504 0 0 0 1.578.154c.508-.252.836-.775.836-1.348v-3.926h2.92v8.469c0 .466.215.905.585 1.19l7.48 5.73c.271.212.593.312.911.312.453 0 .897-.203 1.189-.587a1.494 1.494 0 0 0-.276-2.103l-6.888-5.285v-8.745a1.985 1.985 0 0 0-1.983-1.983h-4.958a1.986 1.986 0 0 0-1.985 1.983v1.905l-6.475-4.962a1.47 1.47 0 0 0-.306-.21.93.93 0 0 0-.236-.114 2.44 2.44 0 0 0-.351-.113c-.185-.04-.336-.04-.41-.04h-.002c-.072 0-.222.014-.294.019a1.949 1.949 0 0 0-.569.184c-.11.05-.226.114-.319.189l-22.546 16.943a1.507 1.507 0 0 0-.299 2.104zM198.86 57.736h10.359c.833 0 1.504-.673 1.504-1.5v-7.861a1.5 1.5 0 0 0-1.504-1.5H198.86a1.5 1.5 0 0 0-1.5 1.5v7.861a1.5 1.5 0 0 0 1.5 1.5zm1.503-7.859h7.356v4.856h-7.356v-4.856zM196.834 137.873a.932.932 0 0 0-.604.223c-.575.461-1.142.721-1.994.721-1.575 0-2.668-1.311-2.668-2.885v-.027c0-1.578 1.117-2.861 2.668-2.861.722 0 1.312.236 1.876.654.144.094.326.199.603.199a.986.986 0 0 0 .997-.984 1.01 1.01 0 0 0-.392-.799c-.764-.566-1.695-.93-3.071-.93-2.822 0-4.792 2.135-4.792 4.748v.021c0 2.641 2.01 4.729 4.71 4.729 1.47 0 2.445-.434 3.271-1.154a.952.952 0 0 0 .342-.719.95.95 0 0 0-.946-.936zM204.769 131.184c-2.834 0-4.895 2.135-4.895 4.748v.021c0 2.617 2.034 4.729 4.869 4.729 2.836 0 4.896-2.139 4.896-4.75v-.027c.001-2.614-2.034-4.721-4.87-4.721zm2.757 4.769c0 1.582-1.129 2.863-2.757 2.863-1.626 0-2.782-1.311-2.782-2.885v-.027c0-1.578 1.13-2.861 2.756-2.861 1.629 0 2.783 1.316 2.783 2.889v.021zM220.605 131.283h-.22c-.406 0-.696.17-.906.514l-2.456 3.988-2.438-3.977a1.04 1.04 0 0 0-.921-.525h-.226c-.564 0-1.007.449-1.007 1.012v7.324c0 .551.433.982.982.982a.983.983 0 0 0 .998-.982v-4.566l1.746 2.691c.208.314.474.512.839.512.371 0 .631-.197.841-.512l1.772-2.732v4.578c0 .553.446 1.012.994 1.012.568 0 1.015-.443 1.015-1.012v-7.295a1.003 1.003 0 0 0-1.013-1.012zM232.968 131.283h-.226c-.403 0-.694.17-.903.514l-2.457 3.988-2.438-3.977c-.185-.305-.483-.525-.916-.525h-.226c-.566 0-1.009.449-1.009 1.012v7.324c0 .551.431.982.983.982a.984.984 0 0 0 .996-.982v-4.566l1.746 2.691c.209.314.472.512.84.512.367 0 .627-.197.839-.512l1.772-2.732v4.578c0 .553.447 1.012.998 1.012.563 0 1.011-.443 1.011-1.012v-7.295a1.004 1.004 0 0 0-1.01-1.012zM244.027 131.256c-.563 0-1.01.449-1.01 1.014v4.332c0 1.459-.746 2.207-1.98 2.207-1.238 0-1.983-.775-1.983-2.273v-4.266c0-.564-.446-1.014-1.013-1.014-.562 0-1.006.449-1.006 1.014v4.316c0 2.707 1.508 4.084 3.973 4.084 2.47 0 4.03-1.363 4.03-4.148v-4.252c0-.565-.445-1.014-1.011-1.014zM255.256 131.256a.998.998 0 0 0-.996 1.002v4.736l-3.898-5.117c-.277-.355-.565-.594-1.054-.594h-.206c-.563 0-1.012.449-1.012 1.012v7.311c0 .553.448.996.998.996a.995.995 0 0 0 .996-.996v-4.918l4.042 5.301c.276.352.567.592 1.053.592h.067c.562 0 1.009-.447 1.009-1.014v-7.309a1 1 0 0 0-.999-1.002zM260.554 131.256c-.565 0-1.011.449-1.011 1.014v7.32c0 .566.445 1.012 1.011 1.012.562 0 1.011-.445 1.011-1.012v-7.32c0-.565-.448-1.014-1.011-1.014zM270.941 131.338h-5.908a.934.934 0 0 0-.932.932c0 .512.421.932.932.932h1.944v6.389a1 1 0 0 0 1.009 1.012c.565 0 1.012-.443 1.012-1.012v-6.389h1.943a.932.932 0 0 0 0-1.864zM280.989 131.246c-.421 0-.723.236-.973.605l-2.271 3.238-2.232-3.215c-.244-.371-.537-.619-.993-.619-.568 0-1.014.438-1.014.975 0 .287.106.525.251.719l2.963 4.033v2.607c0 .568.45 1.012 1.014 1.012a1 1 0 0 0 1.008-1.012v-2.648l2.969-4.002c.132-.184.263-.434.263-.709-.001-.548-.369-.984-.985-.984zM294.427 131.992c-.227-.498-.617-.797-1.172-.797h-.119c-.548 0-.953.299-1.179.797l-3.202 7.232a1.108 1.108 0 0 0-.116.434.93.93 0 0 0 .933.943c.42 0 .76-.232.932-.631l.639-1.508h4.042l.622 1.443c.182.42.498.695.969.695a.958.958 0 0 0 .958-.971c0-.127-.041-.262-.103-.406l-3.204-7.231zm-2.533 4.69l1.271-3.035 1.276 3.035h-2.547zM303.974 135.025c-1.591-.406-1.979-.604-1.979-1.209v-.025c0-.443.405-.797 1.181-.797.628 0 1.259.221 1.927.615a.962.962 0 0 0 .51.143.93.93 0 0 0 .95-.932.926.926 0 0 0-.448-.801c-.828-.525-1.795-.814-2.911-.814-1.879 0-3.218 1.102-3.218 2.771v.029c0 1.82 1.195 2.33 3.047 2.807 1.53.393 1.853.656 1.853 1.166v.029c0 .535-.505.865-1.328.865-.896 0-1.654-.316-2.348-.83a1.016 1.016 0 0 0-.581-.184.932.932 0 0 0-.946.936c0 .312.161.596.382.758a5.917 5.917 0 0 0 3.449 1.104c1.981 0 3.377-1.021 3.377-2.848v-.029c-.001-1.593-1.052-2.267-2.917-2.754zM313.221 135.025c-1.586-.406-1.981-.604-1.981-1.209v-.025c0-.443.408-.797 1.184-.797.628 0 1.261.221 1.927.615a.969.969 0 0 0 .512.143.931.931 0 0 0 .948-.932.924.924 0 0 0-.448-.801c-.828-.525-1.796-.814-2.912-.814-1.878 0-3.217 1.102-3.217 2.771v.029c0 1.82 1.194 2.33 3.043 2.807 1.534.393 1.856.656 1.856 1.166v.029c0 .535-.505.865-1.33.865-.893 0-1.654-.316-2.35-.83a.986.986 0 0 0-.577-.184.932.932 0 0 0-.946.936c0 .312.16.596.382.758a5.916 5.916 0 0 0 3.448 1.104c1.982 0 3.377-1.021 3.377-2.848v-.029c-.001-1.593-1.05-2.267-2.916-2.754zM323.373 131.184c-2.836 0-4.894 2.135-4.894 4.748v.021c0 2.617 2.035 4.729 4.869 4.729 2.835 0 4.896-2.139 4.896-4.75v-.027c0-2.614-2.037-4.721-4.871-4.721zm2.755 4.769c0 1.582-1.124 2.863-2.756 2.863-1.626 0-2.781-1.311-2.781-2.885v-.027c0-1.578 1.129-2.861 2.757-2.861 1.629 0 2.78 1.316 2.78 2.889v.021zM338.005 137.873a.94.94 0 0 0-.604.223c-.579.461-1.144.721-1.997.721-1.576 0-2.66-1.311-2.66-2.885v-.027c0-1.578 1.112-2.861 2.66-2.861.724 0 1.314.236 1.878.654.145.094.328.199.603.199.554 0 1-.434 1-.984a.996.996 0 0 0-.396-.799c-.76-.566-1.689-.93-3.071-.93-2.822 0-4.786 2.135-4.786 4.748v.021c0 2.641 2.006 4.729 4.711 4.729 1.471 0 2.441-.434 3.269-1.154a.959.959 0 0 0 .342-.719.956.956 0 0 0-.949-.936zM342.815 131.256c-.561 0-1.007.449-1.007 1.014v7.32c0 .566.446 1.012 1.007 1.012.566 0 1.012-.445 1.012-1.012v-7.32c0-.565-.446-1.014-1.012-1.014zM352.255 131.992c-.222-.498-.614-.797-1.166-.797h-.117c-.553 0-.957.299-1.182.797l-3.202 7.232a1.095 1.095 0 0 0-.118.434c0 .523.405.943.933.943.419 0 .761-.232.933-.631l.643-1.508h4.038l.621 1.443c.181.42.498.695.97.695a.959.959 0 0 0 .959-.971c0-.127-.042-.262-.107-.406l-3.205-7.231zm-2.528 4.69l1.271-3.035 1.273 3.035h-2.544zM363.261 131.338h-5.905a.93.93 0 0 0 0 1.864h1.942v6.389c0 .568.447 1.012 1.013 1.012a1 1 0 0 0 1.008-1.012v-6.389h1.942c.512 0 .934-.42.934-.932a.935.935 0 0 0-.934-.932zM367.745 131.256c-.565 0-1.008.449-1.008 1.014v7.32a1 1 0 0 0 1.008 1.012c.564 0 1.011-.445 1.011-1.012v-7.32a1.006 1.006 0 0 0-1.011-1.014zM376.516 131.184c-2.835 0-4.893 2.135-4.893 4.748v.021c0 2.617 2.03 4.729 4.866 4.729s4.898-2.139 4.898-4.75v-.027c.001-2.614-2.033-4.721-4.871-4.721zm2.758 4.769c0 1.582-1.128 2.863-2.758 2.863-1.627 0-2.782-1.311-2.782-2.885v-.027c0-1.578 1.129-2.861 2.756-2.861 1.63 0 2.784 1.316 2.784 2.889v.021zM391.347 131.256c-.557 0-1 .449-1 1.002v4.736l-3.898-5.117c-.276-.355-.563-.594-1.049-.594h-.211c-.564 0-1.01.449-1.01 1.012v7.311a.996.996 0 1 0 1.993 0v-4.918l4.045 5.301c.277.352.562.592 1.05.592h.066c.565 0 1.01-.447 1.01-1.014v-7.309a.998.998 0 0 0-.996-1.002zM189.692 114.021c0 .939.803 1.783 1.784 1.783.938 0 1.741-.801 1.741-1.783V85.943c0-.936-.803-1.74-1.741-1.74h-.401c-.711 0-1.294.357-1.651.934l-11.161 16.789-11.162-16.789c-.356-.531-.89-.934-1.65-.934h-.4c-.938 0-1.741.805-1.741 1.74v28.125c0 .982.758 1.736 1.694 1.736a1.71 1.71 0 0 0 1.741-1.736V90.764l9.958 14.643c.402.58.89.896 1.516.896.627 0 1.074-.316 1.476-.896l9.998-14.688v23.302zM225.848 87.549a1.6 1.6 0 0 0 1.608-1.607c0-.891-.713-1.604-1.608-1.604h-19.419c-.936 0-1.74.799-1.74 1.785v27.676c0 .98.804 1.785 1.74 1.785h19.643c.894 0 1.607-.715 1.607-1.607s-.714-1.607-1.607-1.607h-17.856v-10.936h15.626a1.6 1.6 0 0 0 1.606-1.605c0-.85-.714-1.609-1.606-1.609h-15.626V87.55h17.632zM264.686 99.961v-.088c0-8.797-6.785-15.535-16.606-15.535h-9.109c-.934 0-1.741.803-1.741 1.785v27.676c0 .98.808 1.785 1.741 1.785h9.109c9.821 0 16.606-6.826 16.606-15.623zM248.08 112.33h-7.32V87.594h7.32c7.898 0 12.945 5.445 12.945 12.367v.088c0 6.918-5.047 12.281-12.945 12.281zM295.843 87.594c.892 0 1.606-.756 1.606-1.65 0-.893-.715-1.605-1.606-1.605h-19.329c-.938 0-1.741.805-1.741 1.785v27.898c0 .982.803 1.789 1.741 1.789.981 0 1.785-.807 1.785-1.789v-12.051h15.534a1.6 1.6 0 0 0 1.608-1.609c0-.895-.714-1.605-1.608-1.605h-15.534V87.594h17.544zM344.187 112.369H326.33v-10.936h15.625c.892 0 1.61-.717 1.61-1.605 0-.85-.719-1.609-1.61-1.609H326.33v-10.67h17.633a1.6 1.6 0 0 0 1.608-1.607c0-.891-.714-1.604-1.608-1.604h-19.42c-.932 0-1.741.799-1.741 1.785v27.676c0 .98.81 1.785 1.741 1.785h19.645c.894 0 1.605-.715 1.605-1.607s-.712-1.608-1.606-1.608zM375.078 115.584a1.6 1.6 0 0 0 1.604-1.609c0-.891-.714-1.648-1.604-1.648h-16.204V85.898c0-.98-.808-1.785-1.788-1.785-.934 0-1.74.805-1.74 1.785V113.8c0 .982.807 1.783 1.74 1.783h17.992zM396.504 84.338h-9.107c-.942 0-1.741.803-1.741 1.785v27.676c0 .98.799 1.785 1.741 1.785h9.107c9.82 0 16.605-6.826 16.605-15.623v-.088c.001-8.797-6.784-15.535-16.605-15.535zm12.945 15.711c0 6.918-5.045 12.281-12.944 12.281h-7.319V87.594h7.319c7.899 0 12.944 5.445 12.944 12.367v.088zM275.501 40.756c1.481 0 3.132-.216 5.188-.68 1.32-.3 2.672-.668 4.052-1.047 2.859-.781 5.815-1.586 8.808-1.856a22.187 22.187 0 0 1 1.985-.093c2.794 0 5.438.568 8.332 1.788a.71.71 0 0 0 .707-.091.704.704 0 0 0 .28-.656c-.342-2.719-.531-6.14-.527-9.629.002-4.637.328-8.944.89-11.83a.717.717 0 0 0-.421-.794c-4.109-1.72-7.54-2.522-10.799-2.522h-.197c-3.768.042-7.005 1.075-10.129 2.074a76.69 76.69 0 0 1-3.171.963c-1.898.517-3.444.759-4.872.759-1.966 0-3.805-.462-5.635-1.409a.712.712 0 0 0-1.043.623l-.076 21.746a.716.716 0 0 0 .287.583c1.862 1.396 3.754 2.071 6.341 2.071zM310.132 13.747a2.568 2.568 0 0 0 2.568-2.575 2.573 2.573 0 0 0-2.58-2.567 2.572 2.572 0 0 0 .012 5.142zM330.649 27.575l17.956-11.965 17.957 11.965a1.33 1.33 0 0 0 1.846-.373 1.326 1.326 0 0 0-.37-1.847l-18.691-12.456a1.327 1.327 0 0 0-1.481 0l-18.692 12.456a1.332 1.332 0 0 0 1.475 2.22zM345.665 30.897h-7.454c-.734 0-1.334.598-1.334 1.336v7.369c0 .739.6 1.334 1.334 1.334h7.454c.74 0 1.337-.595 1.337-1.334v-7.369a1.336 1.336 0 0 0-1.337-1.336zm-1.332 7.373h-4.791v-4.703h4.791v4.703zM360.658 39.602v-7.369c0-.738-.6-1.336-1.335-1.336h-7.46c-.731 0-1.332.598-1.332 1.336v7.369c0 .739.601 1.334 1.332 1.334h7.46a1.334 1.334 0 0 0 1.335-1.334zm-2.667-1.332H353.2v-4.703h4.791v4.703zM339.14 50.327h-10.196c-.735 0-1.334.598-1.334 1.332v4.818c0 .736.599 1.334 1.334 1.334h10.196c.736 0 1.338-.598 1.338-1.334v-4.818c0-.734-.602-1.332-1.338-1.332zm-1.332 4.816h-7.531v-2.146h7.531v2.146zM356.287 51.659v4.818c0 .736.597 1.334 1.331 1.334h10.205c.735 0 1.333-.598 1.333-1.334v-4.818c0-.737-.598-1.335-1.333-1.335h-10.205c-.735 0-1.331.597-1.331 1.335zm2.668 1.337h7.532v2.147h-7.532v-2.147zM321.083 45.708c.262 0 .526-.078.76-.238l8.275-5.733c.604-.42.753-1.25.336-1.854a1.33 1.33 0 0 0-1.854-.338l-8.276 5.733a1.33 1.33 0 0 0-.337 1.855c.259.375.672.575 1.096.575zM366.609 37.881a1.33 1.33 0 0 0 .336 1.855l8.271 5.733a1.338 1.338 0 0 0 1.861-.335 1.338 1.338 0 0 0-.338-1.856l-8.275-5.733a1.334 1.334 0 0 0-1.855.336zM226.559 2.951h32.956a1.474 1.474 0 1 0 0-2.951h-32.956c-.813 0-1.478.66-1.478 1.476a1.479 1.479 0 0 0 1.478 1.475zM246.167 30.282h6.753c.718 0 1.307-.583 1.307-1.303V14.085c0-.721-.589-1.303-1.307-1.303h-6.753a1.3 1.3 0 0 0-1.305 1.303v14.894c.001.72.581 1.303 1.305 1.303zm1.303-14.893h4.146v12.285h-4.146V15.389zM246.167 51.174h6.753c.718 0 1.307-.582 1.307-1.304V35.434c0-.719-.589-1.303-1.307-1.303h-6.753c-.725 0-1.305.584-1.305 1.303V49.87a1.302 1.302 0 0 0 1.305 1.304zm1.303-14.435h4.146v11.829h-4.146V36.739zM233.179 30.282h6.756c.722 0 1.305-.583 1.305-1.303V14.085c0-.721-.583-1.303-1.305-1.303h-6.756c-.721 0-1.305.582-1.305 1.303v14.894c.001.72.584 1.303 1.305 1.303zm1.302-14.893h4.148v12.285h-4.148V15.389zM125.134 30.457h6.793a1.31 1.31 0 0 0 1.312-1.311v-14.98c0-.722-.587-1.312-1.312-1.312h-6.793c-.722 0-1.31.589-1.31 1.312v14.98a1.312 1.312 0 0 0 1.31 1.311zm1.313-14.98h4.167v12.358h-4.167V15.477zM125.134 51.468h6.793a1.31 1.31 0 0 0 1.312-1.311v-14.52c0-.723-.587-1.311-1.312-1.311h-6.793c-.722 0-1.31.588-1.31 1.311v14.52a1.311 1.311 0 0 0 1.31 1.311zm1.313-14.519h4.167v11.896h-4.167V36.949zM112.072 30.457h6.797c.723 0 1.312-.586 1.312-1.311v-14.98c0-.722-.589-1.312-1.312-1.312h-6.797c-.72 0-1.31.589-1.31 1.312v14.98c0 .725.59 1.311 1.31 1.311zm1.316-14.98h4.169v12.358h-4.169V15.477zM73.462 2.97h65.097c.818 0 1.485-.666 1.485-1.485S139.378 0 138.56 0H73.463a1.484 1.484 0 0 0-.001 2.97zM93.179 30.457h6.794c.722 0 1.311-.586 1.311-1.311v-14.98c0-.722-.589-1.312-1.311-1.312h-6.794c-.723 0-1.31.589-1.31 1.312v14.98a1.311 1.311 0 0 0 1.31 1.311zm1.314-14.98h4.167v12.358h-4.167V15.477zM93.179 51.468h6.794c.722 0 1.311-.585 1.311-1.311v-14.52c0-.723-.589-1.311-1.311-1.311h-6.794c-.723 0-1.31.588-1.31 1.311v14.52a1.31 1.31 0 0 0 1.31 1.311zm1.314-14.519h4.167v11.896h-4.167V36.949zM80.119 30.457h6.793c.727 0 1.315-.586 1.315-1.311v-14.98c0-.722-.588-1.312-1.315-1.312h-6.793c-.723 0-1.311.589-1.311 1.312v14.98c0 .725.588 1.311 1.311 1.311zm1.311-14.98h4.169v12.358H81.43V15.477z"/></g></svg>